# xmcd CD database file
#
# Track frame offsets:
#	150
#	18450
#	30784
#	45259
#	50959
#	68552
#	77097
#	85744
#	94692
#	118767
#	140667
#	157453
#
# Disc length: 2341 seconds
#
# Revision: 0
# Processed by: cddbd v1.4PL0 Copyright (c) Steve Scherf et al.
# Submitted via: CDex 1.50
#
DISCID=9809230c
DTITLE=George Winston - December (Piano Solos, LP version)
DYEAR=1982
DGENRE=New Age
TTITLE0=Thanksgiving 
TTITLE1=Juses, Jesus, Rest Your Head 
TTITLE2=Joy
TTITLE3=Prelude
TTITLE4=Carol of the Bells
TTITLE5=Night Part I - Snow
TTITLE6=Night Part II - Midnight 
TTITLE7=Night Part III - Minstrels
TTITLE8=Variations on the Kanon by Johann Pachelbel
TTITLE9=The Holly and the Ivy
TTITLE10=Some Children See Him
TTITLE11=Peace
EXTD=YEAR: 1982
EXTT0=
EXTT1=
EXTT2=
EXTT3=
EXTT4=
EXTT5=
EXTT6=
EXTT7=
EXTT8=
EXTT9=
EXTT10=
EXTT11=
PLAYORDER=
